<?xml version="1.0" encoding="UTF-8"?>
<svg id="Layer_2" data-name="Layer 2" xmlns="http://www.w3.org/2000/svg" viewBox="0 0 521.1 357.07">
  <defs>
    <style>
      .cls-1 {
        stroke-width: 0px;
      }
    </style>
  </defs>
  <g id="STACKED">
    <path class="cls-1" d="m1.31,113.01c2.51-1.56,3.53,4.14,9.9,6.72,8.55,3.53,34.05-7.26,53.93-16.14,18.04-8.14,22.66-11.33,57.39-26.86,40.97-18.31,79.09-24.28,93.88-24.76,11.4-.34,14.58,5.36,16.69,8.34,2.03,2.98.88,5.09-3.53,3.93-4.34-1.15-16.14-1.83-37.65,2.98-21.57,4.88-43.55,14.58-59.69,21.1-.68.2-1.29.47-2.03.75-3.26,18.45-18.59,78.68-29.64,108.39-11.6,31-33.31,37.51-45.11,37.04-11.8-.47-32.15-1.15-24.28-34.93,7.87-33.78,26.79-52.98,36.49-61.79,9.77-8.75,16.89-10.85,21.98-9.02,5.09,1.9,1.15,4.21-2.03,6.99-3.26,2.78-6.04,6.72-8.82,10.85-2.78,4.14-15.47,17.36-24.96,37.24-9.5,19.87-7.66,42.12-.47,43.95,7.19,1.83,17.16-7.53,25.23-19.2,9.23-13.43,14.99-41.65,20.55-60.17,4.54-15.06,10.58-41.92,12.68-51.42-17.98,8-40.97,18.86-58.47,28.08-25.44,13.43-35.88,9.23-44.9,2.51s-9.7-12.96-7.12-14.58m213.26,27.81s6.92-28.49,3.66-31.47c-3.19-2.98-8.55-7.66-11.8-2.58-3.19,5.09-10.17,19.94-15.47,31.47-5.36,11.6-15.94,35.88-15.94,35.88,0,0,15.94-52.09,10.17-56.03-5.83-3.87-9.5-5.77-11.6-1.36-2.1,4.41-15.06,27.06-21.03,37.92-6.04,10.92-14.38,26.86-14.38,26.86,0,0,6.99-23.81,9.97-33.78,2.98-9.97,7.39-21.98,4.14-24.49-3.19-2.58-10.17-7.66-12.01-3.53,0,0-8.07,20.82-14.58,43.48-6.44,22.72-7.39,34.53-4.41,38.19,3.05,3.73,11.6,6.24,13.91,2.31,2.31-3.93,8.55-21.71,14.58-34.46,6.04-12.68,8.55-20.55,11.33-18.04,0,0-5.77,29.64-2.58,33.78,3.26,4.14,12.75,12.75,16.89,2.78,4.21-9.97,11.12-27.74,16.21-40.02,5.09-12.28,6.24-17.36,8.34-15.74,0,0-11.6,38.19-9.02,40.97,2.51,2.78,9.23,9.02,15.74,2.31,6.44-6.72,11.33-22.25,16.89-34.73,5.56-12.48,16.42-33.51,18.04-32.36,0,0-12.28,45.58-12.07,49.52.27,3.93,11.12,12.68,15.74,6.72,4.61-6.04,16.01-29.64,16.01-29.64,0,0,1.56,14.31,7.6,18.99,6.04,4.61,9.7,4.34,13.43-1.42,3.66-5.77,14.58-26.12,22.86-39.55,8.34-13.43,10.24-15.06,10.65-14.31.47.68-11.53,44.84-18.45,60.37-6.99,15.47-18.31,33.31-27.81,29.85-9.5-3.53-8.07-12.07-9.23-16.01-1.15-3.93-6.24-8.28-7.39-4.61-1.15,3.73-3.73,14.79,4.14,22.18,7.87,7.46,28.22,8.34,37.24.27,9.02-8.14,13.91-15.53,19.87-31,6.04-15.53,8.34-25.44,13.7-43.75,5.29-18.25,8.55-32.36,3.93-36.76-4.68-4.41-9.97-4.61-11.12-1.83-1.15,2.78-7.87,12.96-12.75,20.15-4.82,7.12-14.99,22.86-20.35,31.2-5.29,8.34-6.72,13.91-8.55,12.48-1.83-1.36,1.83-25.44,14.11-43.48,12.28-18.04,20.15-22.18,23.4-23.13,3.19-.95,6.24-2.78,2.71-5.29-3.46-2.58-8.55-4.21-14.31-2.1-5.77,2.1-17.84,8.55-28.9,27.74-11.12,19.2-12.96,26.86-14.11,34.25,0,0-10.65,17.77-13.63,16.62,0,0,11.06-42.8,14.79-52.7,3.66-9.97,5.29-16.21-1.63-18.99s-7.39-1.83-11.6,5.56c-4.14,7.39-9.9,13.16-20.35,33.78-10.38,20.55-14.99,27.54-14.99,27.54m-15.06,117.96s9.7,2.51,14.31,11.53c4.68,9.02,7.19,23.61-8.55,40.5-10.24,11.06-27.27,21.5-44.16,26.59.54,9.5,2.92,11.46,4.61,14.79,2.58,5.09-3.26,4.68-7.87,4.88-4.61.2-10.38-3.73-12.48-15.94,0-.2-.07-.41-.07-.61-3.46.34-6.85.27-10.11-.07-22.93-2.78-40.5-18.52-38.19-35.41,0,0,1.42-3.05,2.37.2.88,3.26,1.83,10.65,11.73,17.84,6.31,4.48,18.25,7.46,33.78,4.14.54-19.6,4.61-52.77,12.48-81.87,1.83-6.58,3.46-12.21,4.88-17.03-5.7,1.76-11.8,3.93-18.52,6.65-36.56,14.52-48.57,34.66-55.96,33.31-7.19-1.36-6.04-5.56-5.29-7.46,0,0,12.21-20.35,47.14-36.49,13.57-6.31,26.73-10.65,38.19-13.43,3.26-9.02,5.16-12.28,6.72-15.26,2.78-5.36,7.87-2.31,11.8.47,3.93,2.78,1.63,4.82,1.63,4.82-.54,1.63-1.29,3.87-2.24,6.58,8.82-1.09,14.99-.95,17.03.14,5.29,2.78,18.72,13.91,17.77,27.06-.88,13.23-21.03,24.08-21.03,24.08m-15.26,13.16c-7.12,1.15-12.07,2.71-17.03,7.39-2.03,12.07-3.93,24.96-5.16,37.04-.2,1.9-.41,3.66-.54,5.29,4.48-1.97,9.16-4.54,13.91-7.6,30.12-19.47,32.42-35.88,30.59-40.5-1.9-4.61-12.96-2.98-21.77-1.63m24.28-49.72c-1.76-1.49-11.06-2.44-27.95,1.15-1.56,4.95-3.19,10.17-4.68,15.26-1.36,4.75-2.98,11.4-4.61,19.13,1.9-.61,4.61-1.63,9.02-4.75,11.8-8.34,17.09-11.12,23.81-18.52,6.72-7.39,7.19-9.97,4.41-12.28m266.44-28.01c4.21,5.83.95,6.51-7.87,3.26-8.75-3.26-19.4-1.15-38.8,4.41-19.47,5.56-33.58,17.77-33.58,17.77,5.77,9.29,6.51,19.94,2.58,31.47-3.93,11.6-16.69,25.71-32.63,29.64-15.94,3.93-37.71-4.61-42.12-9.97-4.41-5.29-5.29-6.04-2.31-6.92,2.98-.95,4.41-.27,11.8,4.61,7.39,4.88,21.3,1.36,27.74-1.63,6.51-2.98,15.74-13.63,19.87-23.61,4.21-9.9,2.1-14.99,2.1-14.99,0,0-25.91,21.98-33.78,28.69-7.87,6.65-8.07,5.49-10.65,3.46-2.51-2.1-.88-3.26,1.9-6.51,2.78-3.26,34.66-30.73,38.87-33.51,4.14-2.78-3.93-3.73-10.45-4.41-6.44-.68-15.47-.68-15.47-.68,0,0-7.19,8.07-13.91,16.14-6.72,8.14-20.82,25.5-20.82,25.5,0,0-2.51,14.99-5.29,30.93-.95,5.43-2.51,10.17-4.48,14.31,16.42-1.97,32.56-2.37,38.87-.88,9.7,2.17,11.67,7.26,14.52,12.07s1.56,11.6-4.21,12.28c-5.7.68-7.46-5.29-9.84-10.79-2.1-4.68-17.64-7.26-47.82-.68-1.97,1.9-4,3.46-6.04,4.68-4.48,2.71-10.99,2.71-16.69,1.36-37.31,11.73-56.3,29.78-62.34,33.51-6.38,4-10.31-6.58-10.31-6.58-3.26-9.16,33.1-25.17,59.69-34.46-3.53-5.29-4.34-13.43-2.98-17.64,1.63-4.82,2.1-5.97,6.72-3.93,4.61,2.1,3.46,6.04,3.46,6.04,0,0-1.36,8.07,3.93,11.8h.07c3.19-1.02,6.04-1.83,8.41-2.44.75-.2,1.56-.34,2.37-.54.34-.27.61-.54.95-.75,3.73-2.51,9.02-18.25,9.02-18.25,0,0-5.97,11.06-8.34,15.26-2.31,4.14-5.77,3.46-7.6,1.36-1.83-2.03.47-2.98,3.73-6.72,3.19-3.66,10.58-12.96,13.84-26.12,3.26-13.16,4.41-34.93,3.73-35.14-.75-.27-11.33,32.15-13.43,41.17-2.1,9.02-5.77,8.75-10.85,7.87-5.09-.95-9.5-3.93-10.92-12.75-1.36-8.75,4.21-32.63,5.56-36.97,1.42-4.41-1.36-2.1-4.82.41-.47.34-1.15.81-1.9,1.42-3.12,19.2-10.65,39.68-13.36,47.41-4.41,12.28-9.29,14.31-19.26,9.02-9.9-5.36-10.38-24.08-7.39-36.76,1.76-7.46,4.68-15.94,7.73-22.79-11.94-14.45-2.03-36.09.88-38.73,2.98-2.78,21.71-8.61,30.25,12.01,2.51,5.9,2.85,13.84,2.1,22.38,8.14-6.24,13.29-16.08,14.31-17.98,1.42-2.58,5.56-.47,9.5,2.03,3.93,2.58.95,7.46-.47,13.91-1.36,6.44-3.93,26.86-4.82,33.31-.95,6.51-1.63,9.23.68,6.04,2.31-3.26,8.82-22.93,14.31-40.02,5.56-17.16,6.51-34.93,7.46-38.19.88-3.26,7.8-1.63,12.48.47,4.61,2.1,3.46,12.01,2.51,21.5-.88,9.5-2.51,32.63-2.51,32.63l27.74-29.85s-6.51-2.58-11.8-6.44c-5.29-3.93-8.82-15.06-3.73-24.76,5.09-9.77,10.45-21.5,28.49-27.06,18.04-5.56,22.18-1.42,29.37,4.61,7.19,6.04,5.77,6.92,4.82,13.63-.88,6.72-4.61,12.96-9.23,17.36-4.61,4.41-9.5,0-9.5,0,0,0-6.24,6.72-11.06,12.28-4.88,5.49-6.04,5.49-6.04,5.49,13.91-.68,30.52,4.41,30.52,4.41,40.5-29.57,60.17-32.63,67.76-31.88,7.66.68,14.58,7.6,18.72,13.36m-237.55,29.57c.27-.47.61-.95.95-1.36,4.41-5.29,7.87-8.07,12.48-6.65,4.61,1.36,4.41,3.46,4.41,3.46-3.46,5.29-6.24,10.51-8.34,15.53,2.1.41,4.68.34,7.66-.34,1.36-6.85,2.17-12.89,2.03-17.09-.2-9.02-4.14-17.57-11.06-19.4-6.99-1.83-10.45,10.65-8.82,22.45.2,1.15.41,2.31.68,3.39m15.53,18.25c-2.71.47-5.7.54-8.75-.27-6.17,18.45-4.95,33.71-4.48,39.88.75,8.61,3.53-4.34,8.34-21.23,1.83-6.24,3.46-12.55,4.88-18.38m99.24-35.27l20.82-17.36s-6.51-.68-2.78-4.61c3.66-3.93,10.38-12.07,10.65-18.79.2-6.72-6.51-4.14-16.48,2.31-9.9,6.51-17.3,21.3-17.3,29.17s3.93,9.02,5.09,9.29m167.68-118.7c-2.1,4.41-6.24-.68-10.38-5.77-3.8-4.54-19.13-9.36-51.21-4.68-.88,6.85-3.39,16.21-7.33,29.64-9.7,33.1-33.78,44.23-56.44,35.2-22.66-9.02-28.96-27.34-28.96-27.34,0,0-7.8,11.8-12.48,18.99-4.61,7.12-15.94,6.24-18.92-.68-3.05-6.99-2.31-15.33,5.56-47.21,7.8-31.95,23.13-77.46,25.84-83.5,2.78-6.04,6.99-.68,11.12,3.26,4.21,3.93,1.42,9.02,1.42,9.02,0,0-3.93,11.53-14.86,47.41-10.85,35.81-14.11,56.16-14.11,61.25s.95,3.46,5.09-2.78c4.21-6.24,8.82-12.01,8.82-12.01,0-6.24,3.93-29.37,10.38-43.95,6.51-14.58,18.31-23.81,23.88-26.39,5.49-2.51,9.43-.88,13.63,3.93,4.14,4.88,2.98,16.48-4.88,33.78-2.44,5.49-5.7,9.97-8.95,13.63,12.68-5.02,28.15-10.58,45.04-15.94.27-.07.47-.14.75-.2.61-13.09-4.82-19.33-4-21.1.95-1.83,2.37-2.98,12.55,5.09,4.07,3.26,6.38,6.58,6.99,11.53,42.67-11.19,53.25-3.26,58,.27,5.29,3.93,5.56,14.11,3.46,18.52m-136.27,4.41s11.12-8.55,18.31-40.02c0,0-5.09,2.31-10.17,13.16-5.09,10.92-8.82,23.4-8.14,26.86m58.54-12.01c-25.3,5.43-47.48,15.19-59.49,21.16-4.75,17.7,6.78,30.66,17.16,33.37,10.45,2.78,18.72-1.83,25.71-11.53,6.44-9.02,14.11-27.95,16.62-43.01"/>
  </g>
</svg>